<?xml version="1.0" encoding="utf-8"?>
<!-- Generator: Adobe Illustrator 21.0.0, SVG Export Plug-In . SVG Version: 6.00 Build 0)  -->
<svg version="1.1" id="Capa_1" xmlns="http://www.w3.org/2000/svg" xmlns:xlink="http://www.w3.org/1999/xlink" x="0px" y="0px"
	 viewBox="0 0 45.1 45.1" style="enable-background:new 0 0 45.1 45.1;" xml:space="preserve">
<g>
	<g id="_x35_8_24_">
		<g>
			<path d="M19.6,25.4c-0.1,0.2-0.2,0.3-0.3,0.5c-0.1,0.1-0.2,0.2-0.4,0.3s-0.3,0.1-0.6,0.1c-0.3,0-0.6-0.1-0.8-0.2
				c-0.2-0.1-0.4-0.3-0.5-0.5c-0.1-0.2-0.2-0.5-0.3-0.8c-0.1-0.3-0.1-0.6-0.1-0.9c0-0.3,0-0.6,0.1-0.9c0.1-0.3,0.1-0.5,0.3-0.8
				c0.1-0.2,0.3-0.4,0.5-0.5c0.2-0.1,0.5-0.2,0.8-0.2c0.3,0,0.5,0.1,0.7,0.2c0.2,0.1,0.3,0.2,0.4,0.4c0.1,0.1,0.2,0.3,0.2,0.4
				c0,0.1,0.1,0.2,0.1,0.3h2.6c-0.1-1.1-0.5-1.9-1.1-2.5c-0.6-0.6-1.6-0.9-2.7-0.9c-0.7,0-1.3,0.1-1.8,0.3c-0.5,0.2-1,0.5-1.4,0.9
				s-0.7,0.9-0.9,1.4c-0.2,0.6-0.3,1.2-0.3,1.8c0,0.6,0.1,1.2,0.3,1.8c0.2,0.5,0.5,1,0.8,1.4s0.8,0.7,1.4,0.9
				c0.5,0.2,1.2,0.3,1.8,0.3c0.6,0,1.2-0.1,1.7-0.3c0.5-0.2,0.9-0.5,1.2-0.8s0.6-0.7,0.8-1.1c0.2-0.4,0.3-0.9,0.3-1.3h-2.6
				C19.7,25,19.6,25.2,19.6,25.4z"/>
			<polygon points="26.6,24.8 26.6,24.8 25.2,19.6 22.5,19.6 25.1,28.2 28,28.2 30.7,19.6 28,19.6 			"/>
			<path d="M33.4,0H5.2v45.1h34.7V6.3L33.4,0z M36.9,42.1H8.2V3h23.7v4.8h5L36.9,42.1L36.9,42.1z"/>
		</g>
	</g>
</g>
</svg>
